<?xml version="1.0" encoding="UTF-8"?>
<svg xmlns="http://www.w3.org/2000/svg" width="210" height="50" viewBox="0 0 210 50" fill="none">
  <path d="M60.1523 45.0198V37.2268C60.1523 37.1735 60.2058 37.1201 60.2592 37.1201H60.8472C60.9006 37.1201 60.9541 37.1735 60.9541 37.2268V45.0198C60.9541 45.0732 60.9006 45.1265 60.8472 45.1265H60.2592C60.2058 45.1265 60.1523 45.1265 60.1523 45.0198ZM67.6885 39.7889C68.0626 40.1625 68.223 40.6429 68.223 41.2301V45.0198C68.223 45.0732 68.1695 45.1265 68.1161 45.1265H67.5281C67.4747 45.1265 67.4212 45.0732 67.4212 45.0198V41.3902C67.4212 40.9632 67.3143 40.6429 67.0471 40.376C66.7799 40.1092 66.4592 39.949 66.0316 39.949C65.604 39.949 65.2833 40.0558 65.0161 40.3227C64.7489 40.5895 64.642 40.9098 64.642 41.3368V44.9664C64.642 45.0198 64.5885 45.0732 64.5351 45.0732H63.9471C63.8937 45.0732 63.8402 45.0198 63.8402 44.9664V39.4686C63.8402 39.4153 63.8937 39.3619 63.9471 39.3619H64.5351C64.5885 39.3619 64.642 39.4153 64.642 39.4686V39.949V40.0024C64.642 40.0024 64.642 40.0024 64.6954 40.0024C65.0161 39.522 65.5506 39.3085 66.2454 39.3085C66.8333 39.2551 67.3678 39.4153 67.6885 39.7889ZM74.797 39.7889C75.1712 40.1625 75.3315 40.6429 75.3315 41.2301V45.0198C75.3315 45.0732 75.2781 45.1265 75.2246 45.1265H74.6367C74.5833 45.1265 74.5298 45.0732 74.5298 45.0198V41.3902C74.5298 40.9632 74.4229 40.6429 74.1557 40.376C73.8884 40.1092 73.5677 39.949 73.1402 39.949C72.7126 39.949 72.3919 40.0558 72.1246 40.3227C71.8574 40.5895 71.7505 40.9098 71.7505 41.3368V44.9664C71.7505 45.0198 71.6971 45.0732 71.6436 45.0732H71.0557C71.0022 45.0732 70.9488 45.0198 70.9488 44.9664V39.4686C70.9488 39.4153 71.0022 39.3619 71.0557 39.3619H71.6436C71.6971 39.3619 71.7505 39.4153 71.7505 39.4686V39.949V40.0024C71.7505 40.0024 71.7505 40.0024 71.804 40.0024C72.1247 39.522 72.6591 39.3085 73.3539 39.3085C73.9419 39.2551 74.4229 39.4153 74.797 39.7889ZM78.6453 44.8063C78.2711 44.5394 77.9505 44.1124 77.8436 43.632C77.7367 43.2584 77.6832 42.8314 77.6832 42.2442C77.6832 41.6571 77.7367 41.1767 77.8436 40.8564C78.0039 40.376 78.2711 40.0024 78.6453 39.6822C79.0194 39.4153 79.5004 39.2551 80.0884 39.2551C80.6228 39.2551 81.1039 39.4153 81.478 39.6822C81.8521 39.949 82.1194 40.3227 82.2797 40.8564C82.3866 41.1767 82.4401 41.6571 82.4401 42.2442C82.4401 42.8847 82.3866 43.3117 82.2797 43.632C82.1194 44.1124 81.8521 44.5394 81.478 44.8063C81.1039 45.0732 80.6228 45.2333 80.0349 45.2333C79.5539 45.2333 79.0729 45.0732 78.6453 44.8063ZM81.0504 44.2191C81.3177 44.0056 81.478 43.7388 81.5849 43.4185C81.6384 43.1516 81.6918 42.778 81.6918 42.2442C81.6918 41.7638 81.6384 41.3368 81.5849 41.0699C81.478 40.7497 81.3177 40.4294 81.0504 40.2693C80.7832 40.0558 80.4625 39.949 80.0884 39.949C79.7142 39.949 79.3935 40.0558 79.1263 40.2693C78.8591 40.4828 78.6987 40.7497 78.5918 41.0699C78.5384 41.3368 78.4849 41.7105 78.4849 42.2442C78.4849 42.7246 78.5384 43.1516 78.5918 43.4185C78.6987 43.7388 78.8591 44.059 79.1263 44.2191C79.3935 44.4326 79.7142 44.5394 80.0884 44.5394C80.4625 44.5394 80.7832 44.4326 81.0504 44.2191ZM86.128 45.0732L84.2573 39.4686V39.4153C84.2573 39.3619 84.3107 39.3085 84.3642 39.3085H85.0056C85.059 39.3085 85.1125 39.3619 85.1659 39.4153L86.609 43.8989C86.609 43.8989 86.609 43.8989 86.6625 43.8989H86.7159L88.159 39.4153C88.159 39.3619 88.2124 39.3085 88.3193 39.3085H88.9607C89.0676 39.3085 89.0676 39.3619 89.0676 39.4153L87.0366 45.0732C87.0366 45.1265 86.9831 45.1799 86.8762 45.1799H86.2349C86.1814 45.1265 86.128 45.1265 86.128 45.0732ZM94.5727 39.7889C94.9468 40.1625 95.1606 40.5895 95.1606 41.1767V45.0198C95.1606 45.0732 95.1072 45.1265 95.0538 45.1265H94.4658C94.4124 45.1265 94.3589 45.0732 94.3589 45.0198V44.5394V44.486C94.3589 44.486 94.3589 44.486 94.3055 44.486C94.0917 44.6995 93.8779 44.913 93.5572 45.0198C93.2365 45.1265 92.9158 45.1799 92.5417 45.1799C92.0072 45.1799 91.5262 45.0198 91.1521 44.7529C90.7779 44.486 90.6176 44.059 90.6176 43.4719C90.6176 42.8847 90.8314 42.4577 91.259 42.1375C91.6865 41.8172 92.2745 41.6571 93.0227 41.6571H94.3589C94.4124 41.6571 94.4124 41.6571 94.4124 41.6037V41.1767C94.4124 40.8031 94.3055 40.4828 94.0917 40.2693C93.8779 40.0558 93.5572 39.949 93.0762 39.949C92.702 39.949 92.4348 40.0024 92.1676 40.1625C91.9538 40.3227 91.7934 40.4828 91.74 40.7497C91.74 40.8031 91.6865 40.8564 91.5796 40.8564L90.8848 40.8031C90.7779 40.8031 90.7779 40.7497 90.7779 40.6963C90.8314 40.2693 91.0452 39.8957 91.4728 39.6288C91.8469 39.3619 92.3814 39.2018 92.9693 39.2018C93.6641 39.2551 94.1986 39.4153 94.5727 39.7889ZM93.8245 44.2191C94.1451 44.0056 94.3055 43.6854 94.3055 43.3117V42.4043C94.3055 42.351 94.3055 42.351 94.252 42.351H93.0227C92.5417 42.351 92.1141 42.4577 91.7934 42.6712C91.4727 42.8847 91.3124 43.1516 91.3124 43.5252C91.3124 43.8455 91.4193 44.1124 91.6865 44.2725C91.9003 44.4326 92.221 44.5394 92.5951 44.5394C93.1296 44.5394 93.5038 44.4326 93.8245 44.2191ZM98.4744 44.8063C98.1003 44.5394 97.833 44.1124 97.6727 43.632C97.5658 43.3117 97.5123 42.8314 97.5123 42.1908C97.5123 41.6571 97.5658 41.1767 97.6727 40.8031C97.833 40.3227 98.1003 39.949 98.4744 39.6822C98.8485 39.4153 99.3296 39.2551 99.9175 39.2551C100.452 39.2551 100.986 39.4153 101.361 39.6822C101.788 39.949 102.055 40.3227 102.162 40.7497C102.216 40.9098 102.216 41.0166 102.216 41.0699C102.216 41.1233 102.162 41.1767 102.109 41.1767L101.521 41.2834C101.467 41.2834 101.414 41.2301 101.414 41.1767L101.361 41.0166C101.307 40.7497 101.147 40.4828 100.88 40.2693C100.612 40.0558 100.292 39.949 99.9175 39.949C99.5434 39.949 99.2227 40.0558 98.9554 40.2693C98.6882 40.4828 98.5279 40.7497 98.4744 41.0699C98.421 41.3368 98.3675 41.7638 98.3675 42.2442C98.3675 42.7246 98.421 43.1516 98.4744 43.4185C98.5279 43.7388 98.7416 44.059 98.9554 44.2191C99.2227 44.4326 99.5434 44.5394 99.9175 44.5394C100.292 44.5394 100.612 44.4326 100.88 44.2725C101.147 44.059 101.307 43.8455 101.414 43.5252V43.4719V43.4185C101.414 43.3651 101.467 43.3117 101.574 43.3117L102.162 43.4185C102.216 43.4185 102.269 43.4719 102.269 43.5252L102.216 43.7388C102.109 44.1658 101.842 44.5394 101.414 44.8063C100.986 45.0732 100.505 45.2333 99.9709 45.2333C99.3296 45.2333 98.8485 45.0732 98.4744 44.8063ZM104.621 38.0809C104.514 37.9741 104.461 37.814 104.461 37.6005C104.461 37.387 104.514 37.2802 104.621 37.1201C104.728 37.0133 104.888 36.96 105.102 36.96C105.316 36.96 105.423 37.0133 105.583 37.1201C105.69 37.2268 105.743 37.387 105.743 37.6005C105.743 37.7606 105.69 37.9207 105.583 38.0809C105.476 38.1876 105.316 38.241 105.102 38.241C104.888 38.241 104.781 38.241 104.621 38.0809ZM104.674 45.0198V39.4153C104.674 39.3619 104.728 39.3085 104.781 39.3085H105.369C105.423 39.3085 105.476 39.3619 105.476 39.4153V45.0198C105.476 45.0732 105.423 45.1265 105.369 45.1265H104.781C104.674 45.1265 104.674 45.0732 104.674 45.0198ZM109.111 44.8063C108.736 44.5394 108.416 44.1124 108.309 43.632C108.202 43.2584 108.148 42.8314 108.148 42.2442C108.148 41.6571 108.202 41.1767 108.309 40.8564C108.469 40.376 108.736 40.0024 109.111 39.6822C109.485 39.4153 109.966 39.2551 110.554 39.2551C111.088 39.2551 111.569 39.4153 111.943 39.6822C112.317 39.949 112.585 40.3227 112.745 40.8564C112.852 41.1767 112.905 41.6571 112.905 42.2442C112.905 42.8847 112.852 43.3117 112.745 43.632C112.585 44.1124 112.317 44.5394 111.943 44.8063C111.569 45.0732 111.088 45.2333 110.5 45.2333C110.019 45.2333 109.538 45.0732 109.111 44.8063ZM111.516 44.2191C111.783 44.0056 111.943 43.7388 112.05 43.4185C112.104 43.1516 112.157 42.778 112.157 42.2442C112.157 41.7638 112.104 41.3368 112.05 41.0699C111.943 40.7497 111.783 40.4294 111.516 40.2693C111.248 40.0558 110.928 39.949 110.554 39.949C110.179 39.949 109.859 40.0558 109.592 40.2693C109.324 40.4828 109.164 40.7497 109.057 41.0699C109.004 41.3368 108.95 41.7105 108.95 42.2442C108.95 42.7246 109.004 43.1516 109.057 43.4185C109.164 43.7388 109.324 44.059 109.592 44.2191C109.859 44.4326 110.179 44.5394 110.554 44.5394C110.928 44.5394 111.248 44.4326 111.516 44.2191ZM110.019 38.5613C110.019 38.5079 110.019 38.5079 110.019 38.4545L110.714 37.2268C110.714 37.1735 110.767 37.1201 110.874 37.1201H111.409C111.462 37.1201 111.462 37.1201 111.516 37.1735C111.516 37.2268 111.516 37.2268 111.516 37.2802L110.714 38.5079C110.661 38.5612 110.607 38.6146 110.554 38.6146H110.126C110.073 38.5612 110.019 38.5613 110.019 38.5613ZM119.266 39.7889C119.64 40.1625 119.8 40.6429 119.8 41.2301V45.0198C119.8 45.0732 119.747 45.1265 119.693 45.1265H119.105C119.052 45.1265 118.998 45.0732 118.998 45.0198V41.3902C118.998 40.9632 118.891 40.6429 118.624 40.376C118.357 40.1092 118.036 39.949 117.609 39.949C117.181 39.949 116.86 40.0558 116.593 40.3227C116.326 40.5895 116.219 40.9098 116.219 41.3368V44.9664C116.219 45.0198 116.166 45.0732 116.112 45.0732H115.471C115.417 45.0732 115.364 45.0198 115.364 44.9664V39.4686C115.364 39.4153 115.417 39.3619 115.471 39.3619H116.059C116.112 39.3619 116.166 39.4153 116.166 39.4686V39.949V40.0024C116.166 40.0024 116.166 40.0024 116.219 40.0024C116.54 39.522 117.074 39.3085 117.769 39.3085C118.41 39.2551 118.891 39.4153 119.266 39.7889ZM125.252 47.315V46.8346C125.252 46.7812 125.305 46.7278 125.359 46.7278H125.412C125.733 46.7278 125.947 46.6745 126.107 46.6211C126.267 46.5143 126.428 46.4076 126.534 46.1941C126.641 45.9806 126.802 45.6603 126.909 45.1799C126.909 45.1265 126.909 45.1265 126.909 45.1265L124.985 39.4686V39.4153C124.985 39.3619 125.038 39.3085 125.091 39.3085H125.679C125.733 39.3085 125.786 39.3619 125.84 39.4153L127.336 44.059C127.336 44.059 127.336 44.059 127.39 44.059H127.443L128.94 39.4153C128.94 39.3619 128.993 39.3085 129.1 39.3085H129.688C129.795 39.3085 129.795 39.3619 129.795 39.4153L127.657 45.6069C127.497 46.1407 127.283 46.5143 127.122 46.7278C126.962 46.9947 126.748 47.1548 126.534 47.2616C126.267 47.3683 125.947 47.4217 125.519 47.4217H125.412C125.252 47.4217 125.252 47.4217 125.252 47.315ZM140.057 37.2268V37.7072C140.057 37.7606 140.003 37.814 139.95 37.814H137.705C137.652 37.814 137.652 37.814 137.652 37.8674V45.0198C137.652 45.0732 137.598 45.1265 137.545 45.1265H136.957C136.903 45.1265 136.85 45.0732 136.85 45.0198V37.8674C136.85 37.814 136.85 37.814 136.796 37.814H134.659C134.605 37.814 134.552 37.7606 134.552 37.7072V37.2268C134.552 37.1735 134.605 37.1201 134.659 37.1201H140.003C140.003 37.1201 140.057 37.1201 140.057 37.2268ZM145.989 42.0841V42.4577C145.989 42.5111 145.936 42.5645 145.883 42.5645H142.195C142.141 42.5645 142.141 42.5645 142.141 42.6179C142.141 43.0449 142.195 43.3117 142.195 43.4185C142.302 43.7388 142.462 44.059 142.729 44.2191C142.996 44.4326 143.371 44.5394 143.798 44.5394C144.119 44.5394 144.386 44.486 144.653 44.3259C144.921 44.1658 145.081 43.9523 145.241 43.6854C145.295 43.632 145.348 43.5786 145.402 43.632L145.829 43.8989C145.883 43.9523 145.883 44.0056 145.883 44.059C145.669 44.4326 145.402 44.6995 145.027 44.913C144.653 45.1265 144.226 45.2333 143.691 45.2333C143.157 45.2333 142.676 45.0732 142.302 44.8597C141.927 44.5928 141.66 44.2725 141.5 43.7921C141.34 43.4185 141.286 42.8847 141.286 42.1908C141.286 41.8706 141.286 41.6037 141.286 41.3902C141.286 41.1767 141.34 41.0166 141.393 40.8564C141.5 40.376 141.767 39.949 142.195 39.6822C142.569 39.3619 143.05 39.2551 143.638 39.2551C144.333 39.2551 144.867 39.4153 145.241 39.7889C145.615 40.1625 145.829 40.6429 145.936 41.2834C145.989 41.4969 145.989 41.7638 145.989 42.0841ZM142.729 40.2693C142.462 40.4828 142.302 40.7497 142.248 41.0699C142.195 41.2301 142.195 41.4969 142.141 41.8706C142.141 41.924 142.141 41.924 142.195 41.924H145.188C145.241 41.924 145.241 41.924 145.241 41.8706C145.241 41.5503 145.188 41.2834 145.188 41.1233C145.081 40.8031 144.921 40.4828 144.653 40.3227C144.386 40.1092 144.065 40.0024 143.691 40.0024C143.264 39.949 142.943 40.0558 142.729 40.2693ZM149.25 44.8063C148.876 44.5394 148.608 44.1124 148.448 43.632C148.341 43.3117 148.288 42.8314 148.288 42.1908C148.288 41.6571 148.341 41.1767 148.448 40.8031C148.608 40.3227 148.876 39.949 149.25 39.6822C149.624 39.4153 150.105 39.2551 150.693 39.2551C151.227 39.2551 151.762 39.4153 152.136 39.6822C152.564 39.949 152.831 40.3227 152.938 40.7497C152.991 40.9098 152.991 41.0166 152.991 41.0699C152.991 41.1233 152.938 41.1767 152.884 41.1767L152.296 41.2834C152.243 41.2834 152.189 41.2301 152.189 41.1767L152.136 41.0166C152.083 40.7497 151.922 40.4828 151.655 40.2693C151.388 40.0558 151.067 39.949 150.693 39.949C150.319 39.949 149.998 40.0558 149.731 40.2693C149.464 40.4828 149.303 40.7497 149.25 41.0699C149.196 41.3368 149.143 41.7638 149.143 42.2442C149.143 42.7246 149.196 43.1516 149.25 43.4185C149.303 43.7388 149.517 44.059 149.731 44.2191C149.998 44.4326 150.319 44.5394 150.693 44.5394C151.067 44.5394 151.388 44.4326 151.655 44.2725C151.922 44.059 152.083 43.8455 152.189 43.5252V43.4719V43.4185C152.189 43.3651 152.243 43.3117 152.35 43.3117L152.938 43.4185C152.991 43.4185 153.045 43.4719 153.045 43.5252L152.991 43.7388C152.884 44.1658 152.617 44.5394 152.189 44.8063C151.762 45.0732 151.281 45.2333 150.746 45.2333C150.158 45.2333 149.677 45.0732 149.25 44.8063ZM159.191 39.7889C159.565 40.1625 159.726 40.6429 159.726 41.2301V45.0198C159.726 45.0732 159.672 45.1265 159.619 45.1265H159.031C158.977 45.1265 158.924 45.0732 158.924 45.0198V41.3902C158.924 40.9632 158.817 40.6429 158.55 40.376C158.282 40.1092 157.962 39.949 157.534 39.949C157.107 39.949 156.786 40.0558 156.519 40.3227C156.251 40.5895 156.145 40.9098 156.145 41.3368V44.9664C156.145 45.0198 156.091 45.0732 156.038 45.0732H155.45C155.396 45.0732 155.343 45.0198 155.343 44.9664V39.4686C155.343 39.4153 155.396 39.3619 155.45 39.3619H156.038C156.091 39.3619 156.145 39.4153 156.145 39.4686V39.949V40.0024C156.145 40.0024 156.145 40.0024 156.198 40.0024C156.519 39.522 157.053 39.3085 157.748 39.3085C158.336 39.2551 158.87 39.4153 159.191 39.7889ZM163.093 44.8063C162.719 44.5394 162.398 44.1124 162.291 43.632C162.184 43.2584 162.131 42.8314 162.131 42.2442C162.131 41.6571 162.184 41.1767 162.291 40.8564C162.451 40.376 162.719 40.0024 163.093 39.6822C163.467 39.4153 163.948 39.2551 164.536 39.2551C165.07 39.2551 165.551 39.4153 165.926 39.6822C166.3 39.949 166.567 40.3227 166.727 40.8564C166.834 41.1767 166.888 41.6571 166.888 42.2442C166.888 42.8847 166.834 43.3117 166.727 43.632C166.567 44.1124 166.3 44.5394 165.926 44.8063C165.551 45.0732 165.07 45.2333 164.482 45.2333C164.001 45.2333 163.52 45.0732 163.093 44.8063ZM165.498 44.2191C165.765 44.0056 165.926 43.7388 166.032 43.4185C166.086 43.1516 166.139 42.778 166.139 42.2442C166.139 41.7638 166.086 41.3368 166.032 41.0699C165.926 40.7497 165.765 40.4294 165.498 40.2693C165.231 40.0558 164.91 39.949 164.536 39.949C164.162 39.949 163.841 40.0558 163.574 40.2693C163.307 40.4828 163.146 40.7497 163.039 41.0699C162.986 41.3368 162.932 41.7105 162.932 42.2442C162.932 42.7246 162.986 43.1516 163.039 43.4185C163.146 43.7388 163.307 44.059 163.574 44.2191C163.841 44.4326 164.162 44.5394 164.536 44.5394C164.91 44.5394 165.231 44.4326 165.498 44.2191ZM169.453 45.0198V37.2268C169.453 37.1735 169.507 37.1201 169.56 37.1201H170.148C170.201 37.1201 170.255 37.1735 170.255 37.2268V45.0198C170.255 45.0732 170.201 45.1265 170.148 45.1265H169.56C169.453 45.1265 169.453 45.1265 169.453 45.0198ZM173.729 44.8063C173.355 44.5394 173.034 44.1124 172.927 43.632C172.82 43.2584 172.767 42.8314 172.767 42.2442C172.767 41.6571 172.82 41.1767 172.927 40.8564C173.088 40.376 173.355 40.0024 173.729 39.6822C174.103 39.4153 174.584 39.2551 175.172 39.2551C175.706 39.2551 176.187 39.4153 176.562 39.6822C176.936 39.949 177.203 40.3227 177.363 40.8564C177.47 41.1767 177.524 41.6571 177.524 42.2442C177.524 42.8847 177.47 43.3117 177.363 43.632C177.203 44.1124 176.936 44.5394 176.562 44.8063C176.187 45.0732 175.706 45.2333 175.119 45.2333C174.638 45.2333 174.156 45.0732 173.729 44.8063ZM176.134 44.2191C176.401 44.0056 176.562 43.7388 176.669 43.4185C176.722 43.1516 176.775 42.778 176.775 42.2442C176.775 41.7638 176.722 41.3368 176.669 41.0699C176.562 40.7497 176.401 40.4294 176.134 40.2693C175.867 40.0558 175.546 39.949 175.172 39.949C174.798 39.949 174.477 40.0558 174.21 40.2693C173.943 40.4828 173.782 40.7497 173.675 41.0699C173.622 41.3368 173.569 41.7105 173.569 42.2442C173.569 42.7246 173.622 43.1516 173.675 43.4185C173.782 43.7388 173.943 44.059 174.21 44.2191C174.477 44.4326 174.798 44.5394 175.172 44.5394C175.546 44.5394 175.867 44.4326 176.134 44.2191ZM183.777 39.3085H184.365C184.418 39.3085 184.472 39.3619 184.472 39.4153V44.913C184.472 45.7671 184.205 46.4076 183.724 46.7812C183.243 47.1548 182.548 47.3683 181.693 47.3683C181.532 47.3683 181.372 47.3683 181.265 47.3683C181.212 47.3683 181.158 47.315 181.158 47.2616V46.7278C181.158 46.6744 181.158 46.6745 181.212 46.6211C181.265 46.5677 181.265 46.6211 181.318 46.6211H181.639C182.334 46.6211 182.868 46.4609 183.189 46.1941C183.51 45.9272 183.67 45.4468 183.67 44.8597V44.4326C183.67 44.4326 183.67 44.4326 183.67 44.3793C183.67 44.3793 183.67 44.3793 183.617 44.3793C183.243 44.8597 182.762 45.0732 182.12 45.0732C181.639 45.0732 181.158 44.913 180.784 44.6461C180.41 44.3793 180.143 44.0056 179.982 43.5252C179.875 43.205 179.822 42.7246 179.822 42.1375C179.822 41.8172 179.822 41.4969 179.875 41.2834C179.875 41.0699 179.929 40.8564 179.982 40.6429C180.143 40.1625 180.356 39.7889 180.731 39.522C181.105 39.2551 181.532 39.095 182.013 39.095C182.708 39.095 183.189 39.3085 183.563 39.7889H183.617C183.617 39.7889 183.617 39.7889 183.617 39.7355V39.3085C183.67 39.3619 183.724 39.3085 183.777 39.3085ZM183.67 42.9381C183.67 42.778 183.67 42.5111 183.67 42.1908C183.67 41.8172 183.67 41.5503 183.67 41.3902C183.67 41.2301 183.617 41.1233 183.617 41.0166C183.563 40.6963 183.403 40.4294 183.189 40.2159C182.922 40.0024 182.655 39.8957 182.281 39.8957C181.906 39.8957 181.639 40.0024 181.372 40.2159C181.105 40.4294 180.944 40.6963 180.837 41.0166C180.784 41.2834 180.731 41.6571 180.731 42.1908C180.731 42.7246 180.784 43.1516 180.837 43.3651C180.891 43.6854 181.105 43.9523 181.318 44.1658C181.586 44.3793 181.906 44.486 182.281 44.486C182.655 44.486 182.975 44.3793 183.189 44.1658C183.456 43.9523 183.563 43.6854 183.617 43.3651C183.617 43.2584 183.617 43.1516 183.67 42.9381ZM186.931 38.5613C186.931 38.5079 186.931 38.5079 186.931 38.4545L187.625 37.2268C187.625 37.1735 187.679 37.1201 187.786 37.1201H188.32C188.374 37.1201 188.374 37.1201 188.427 37.1735C188.427 37.2268 188.427 37.2268 188.427 37.2802L187.625 38.5079C187.572 38.5612 187.518 38.6146 187.465 38.6146H187.037C186.984 38.5612 186.931 38.5613 186.931 38.5613ZM186.984 45.0198V39.4686C186.984 39.4153 187.037 39.3619 187.091 39.3619H187.679C187.732 39.3619 187.786 39.4153 187.786 39.4686V45.0732C187.786 45.1265 187.732 45.1799 187.679 45.1799H187.091C186.984 45.1265 186.984 45.1265 186.984 45.0198ZM193.986 39.7889C194.36 40.1625 194.574 40.5895 194.574 41.1767V45.0198C194.574 45.0732 194.52 45.1265 194.467 45.1265H193.879C193.825 45.1265 193.772 45.0732 193.772 45.0198V44.5394V44.486C193.772 44.486 193.772 44.486 193.718 44.486C193.505 44.6995 193.291 44.913 192.97 45.0198C192.649 45.1265 192.329 45.1799 191.955 45.1799C191.42 45.1799 190.939 45.0198 190.565 44.7529C190.191 44.486 190.03 44.059 190.03 43.4719C190.03 42.8847 190.244 42.4577 190.672 42.1375C191.099 41.8172 191.687 41.6571 192.436 41.6571H193.772C193.825 41.6571 193.825 41.6571 193.825 41.6037V41.1767C193.825 40.8031 193.718 40.4828 193.505 40.2693C193.291 40.0558 192.97 39.949 192.489 39.949C192.115 39.949 191.848 40.0024 191.58 40.1625C191.367 40.3227 191.206 40.4828 191.153 40.7497C191.153 40.8031 191.099 40.8564 190.993 40.8564L190.298 40.8031C190.191 40.8031 190.191 40.7497 190.191 40.6963C190.244 40.2693 190.458 39.8957 190.886 39.6288C191.26 39.3619 191.794 39.2018 192.382 39.2018C193.077 39.2551 193.611 39.4153 193.986 39.7889ZM193.237 44.2191C193.558 44.0056 193.718 43.6854 193.718 43.3117V42.4043C193.718 42.351 193.718 42.351 193.665 42.351H192.436C191.955 42.351 191.527 42.4577 191.206 42.6712C190.886 42.8847 190.725 43.1516 190.725 43.5252C190.725 43.8455 190.832 44.1124 191.099 44.2725C191.313 44.4326 191.634 44.5394 192.008 44.5394C192.543 44.5394 192.917 44.4326 193.237 44.2191Z" fill="white"></path>
  <path d="M62.1292 15.6099C62.3964 15.8768 62.5033 16.1437 62.5033 16.5173V31.3559C62.5033 31.6762 62.3964 31.9965 62.1292 32.2633C61.8619 32.5302 61.5947 32.637 61.2206 32.637C60.8999 32.637 60.5792 32.5302 60.3119 32.2633C60.0981 31.9965 59.9378 31.7296 59.9378 31.3559V16.5173C59.9378 16.1971 60.0447 15.8768 60.3119 15.6099C60.8464 15.1295 61.5947 15.1295 62.1292 15.6099ZM69.3446 11.2331H53.1499C52.8292 11.2331 52.5086 11.3398 52.2413 11.6067C51.9741 11.8202 51.8672 12.1405 51.8672 12.5141C51.8672 12.8877 51.9741 13.208 52.2413 13.4215C52.5086 13.635 52.7758 13.7951 53.1499 13.7951H69.2912C69.6653 13.7951 69.986 13.6884 70.1998 13.4215C70.467 13.208 70.5739 12.8877 70.5739 12.5141C70.5739 12.1938 70.467 11.8736 70.1998 11.6067C69.986 11.3398 69.6653 11.2331 69.3446 11.2331ZM86.2876 31.0891C86.2341 30.7688 86.0738 30.4485 85.8065 30.235L82.5462 27.7797C83.241 27.6196 83.9359 27.3527 84.5772 27.0325C85.4858 26.5521 86.2341 25.9116 86.9289 25.1643C87.5703 24.417 88.1048 23.563 88.4789 22.6022C88.8531 21.6414 89.0669 20.6273 89.0669 19.5598C89.0669 18.3855 88.8531 17.318 88.372 16.3038C87.9445 15.2897 87.3031 14.3823 86.5548 13.635C85.8065 12.8877 84.8979 12.2472 83.8824 11.8202C82.8669 11.3932 81.798 11.1797 80.6221 11.1797H73.5135C73.1929 11.1797 72.8722 11.2864 72.6049 11.5533C72.3377 11.8202 72.2308 12.0871 72.2308 12.4607C72.2308 12.781 72.3377 13.1012 72.6049 13.3681C72.8722 13.635 73.1394 13.7418 73.5135 13.7418H80.6755C81.4773 13.7418 82.2255 13.9019 82.9204 14.2221C83.6152 14.5424 84.2566 14.9694 84.791 15.5032C85.3255 16.0369 85.7531 16.6774 86.0738 17.3713C86.3945 18.0652 86.5548 18.8659 86.5548 19.6131C86.5548 20.4138 86.3945 21.1611 86.0738 21.855C85.7531 22.5488 85.3255 23.1894 84.791 23.7231C84.2566 24.2569 83.6152 24.6839 82.9204 25.0042C82.2255 25.3244 81.4773 25.4845 80.6755 25.4845C80.3549 25.4845 79.9807 25.4312 79.66 25.3244C79.3394 25.2177 79.0721 25.0575 78.8049 24.844L74.7963 21.7482V16.5173C74.7963 16.1971 74.6894 15.8768 74.4222 15.6099C73.9411 15.1295 73.1394 15.1295 72.6584 15.6099C72.3911 15.8768 72.2842 16.1437 72.2842 16.5173V31.3026C72.2842 31.6228 72.3911 31.9431 72.6584 32.21C72.9256 32.4768 73.1929 32.5836 73.567 32.5836C73.8877 32.5836 74.2084 32.4768 74.4756 32.21C74.7428 31.9431 74.8497 31.6762 74.8497 31.3026V24.8974L84.2031 32.2633C84.6841 32.6903 85.5393 32.637 86.0203 32.0498C86.2341 31.7829 86.341 31.4627 86.2876 31.0891ZM92.6479 13.7418H101.146C101.467 13.7418 101.787 13.635 102.055 13.3681C102.322 13.1012 102.429 12.8344 102.429 12.4607C102.429 12.1405 102.322 11.8202 102.055 11.5533C101.787 11.2864 101.52 11.1797 101.146 11.1797H92.6479C92.3272 11.1797 92.0065 11.2864 91.7392 11.5533C91.472 11.8202 91.3651 12.0871 91.3651 12.4607C91.3651 12.781 91.472 13.1012 91.7392 13.3681C92.0065 13.635 92.2737 13.7418 92.6479 13.7418ZM102.215 30.0749H95.6944C95.2133 30.0749 94.7858 29.9148 94.4116 29.5411C94.0375 29.1675 93.8772 28.7939 93.8772 28.2601V23.1894H97.4047C97.7254 23.1894 98.0461 23.0826 98.3133 22.8157C98.5806 22.5488 98.6875 22.282 98.6875 21.9083C98.6875 21.5881 98.5806 21.2678 98.3133 21.0009C98.0461 20.734 97.7788 20.6273 97.4047 20.6273H93.8772V16.2504C93.8772 15.9302 93.7703 15.6099 93.503 15.343C93.022 14.8627 92.2203 14.8627 91.7392 15.343C91.472 15.6099 91.3651 15.8768 91.3651 16.2504V28.3669V28.4736C91.3651 29.0608 91.5255 29.5945 91.7392 30.0749C91.953 30.5553 92.2737 30.9823 92.6479 31.3559C93.022 31.7296 93.4496 31.9965 93.9841 32.21C94.4651 32.4235 94.9996 32.5302 95.6944 32.5836H102.215C102.589 32.5836 102.91 32.4768 103.124 32.21C103.391 31.9431 103.498 31.6762 103.498 31.3026C103.498 30.9823 103.391 30.662 103.124 30.3952C102.91 30.235 102.589 30.0749 102.215 30.0749ZM120.12 22.5488C120.441 23.4029 120.601 24.2569 120.601 25.2177C120.601 26.2318 120.387 27.1926 120.013 28.1C119.639 29.0074 119.105 29.808 118.41 30.4485C117.715 31.1424 116.967 31.6762 116.058 32.0498C115.149 32.4235 114.187 32.637 113.172 32.637H107.025C106.705 32.637 106.384 32.5302 106.117 32.2633C105.849 31.9965 105.743 31.7296 105.743 31.3559V16.5707C105.743 16.2504 105.849 15.9302 106.117 15.6633C106.598 15.1829 107.399 15.1829 107.88 15.6633C108.148 15.9302 108.255 16.1971 108.255 16.5707V19.6665C109.11 18.9193 110.125 18.3855 111.248 18.0652C111.622 17.9051 111.943 17.6382 112.21 17.2646C112.477 16.891 112.584 16.4639 112.584 16.0369C112.584 15.3964 112.37 14.8627 111.943 14.4356C111.515 14.0086 110.98 13.7951 110.339 13.7951H107.025C106.705 13.7951 106.384 13.6884 106.117 13.4215C105.849 13.1546 105.743 12.8877 105.743 12.5141C105.743 12.1938 105.849 11.8736 106.117 11.6067C106.384 11.3398 106.651 11.2331 107.025 11.2331H110.499C111.141 11.2331 111.782 11.3932 112.317 11.6601C112.851 11.927 113.386 12.2472 113.76 12.6742C114.187 13.1012 114.508 13.5816 114.722 14.1688C114.989 14.7559 115.096 15.343 115.096 15.9836C115.096 16.4106 115.042 16.8376 114.936 17.2646C114.882 17.4781 114.775 17.6916 114.722 17.9051C115.417 18.0652 116.111 18.2787 116.753 18.6524C117.555 19.0794 118.249 19.6131 118.784 20.307C119.372 20.9476 119.799 21.6948 120.12 22.5488ZM118.089 25.2177C118.089 24.5238 117.982 23.8833 117.715 23.2961C117.448 22.709 117.127 22.1752 116.646 21.7482C116.218 21.3212 115.684 20.9476 115.096 20.6807C113.92 20.2003 112.477 20.2003 111.301 20.6807C110.713 20.9476 110.179 21.2678 109.751 21.7482C109.324 22.1752 108.949 22.709 108.682 23.2961C108.415 23.8833 108.308 24.5238 108.308 25.2177V30.1283H113.225C113.92 30.1283 114.561 30.0215 115.149 29.7546C115.737 29.4878 116.272 29.1675 116.699 28.6871C117.127 28.2601 117.501 27.7263 117.768 27.1392C117.982 26.4987 118.089 25.8582 118.089 25.2177ZM144.332 21.9083C144.332 20.4672 144.065 19.026 143.477 17.745C142.889 16.4639 142.141 15.2897 141.178 14.3289C140.216 13.3681 139.094 12.6208 137.758 12.0337C136.475 11.4466 135.085 11.1797 133.589 11.1797C131.772 11.1797 130.008 11.6601 128.404 12.5141C128.084 12.6742 127.87 12.9411 127.763 13.2614C127.656 13.5816 127.71 13.9019 127.87 14.2221C128.03 14.5424 128.298 14.7559 128.618 14.8093C128.939 14.916 129.26 14.8627 129.58 14.7025C130.81 14.0086 132.146 13.6884 133.535 13.6884C134.658 13.6884 135.727 13.9019 136.689 14.3289C137.704 14.7559 138.56 15.343 139.308 16.0903C140.056 16.8376 140.644 17.6916 141.072 18.7057C141.499 19.7199 141.713 20.7874 141.713 21.855C141.713 22.9759 141.499 24.0434 141.072 25.0042C140.644 26.0183 140.056 26.8723 139.308 27.6196C138.56 28.3669 137.704 28.954 136.689 29.381C134.711 30.235 132.306 30.235 130.329 29.381C129.313 28.954 128.458 28.3669 127.71 27.6196C126.961 26.8723 126.373 26.0183 125.946 25.0042C125.518 23.99 125.304 22.9225 125.304 21.855C125.304 20.4138 125.625 19.0794 126.32 17.9051C126.48 17.5848 126.534 17.2646 126.427 16.9443C126.32 16.6241 126.106 16.3572 125.839 16.1971C125.518 16.0369 125.198 15.9836 124.877 16.0903C124.556 16.1971 124.289 16.4106 124.129 16.7308C123.701 17.5315 123.38 18.3855 123.167 19.2395C122.953 20.0935 122.846 21.0009 122.846 21.9083C122.846 23.4029 123.113 24.7907 123.701 26.0717C124.235 27.3527 125.037 28.4736 125.999 29.4878C126.961 30.4485 128.137 31.2492 129.42 31.7829C130.703 32.3167 132.092 32.637 133.589 32.637C135.032 32.637 136.475 32.3701 137.758 31.7829C139.041 31.2492 140.216 30.4485 141.178 29.4878C142.141 28.527 142.889 27.3527 143.477 26.0717C144.065 24.7907 144.332 23.4029 144.332 21.9083ZM147.592 25.3244C147.913 25.3244 148.234 25.2177 148.501 24.9508C148.768 24.6839 148.875 24.417 148.875 24.0434V12.4607C148.875 12.1405 148.768 11.8202 148.501 11.5533C148.02 11.0729 147.218 11.0729 146.737 11.5533C146.47 11.8202 146.363 12.0871 146.363 12.4607V24.0434C146.363 24.3636 146.47 24.6839 146.737 24.9508C146.951 25.2177 147.218 25.3244 147.592 25.3244ZM158.335 32.637C158.656 32.637 158.977 32.5302 159.244 32.2633C159.511 31.9965 159.618 31.7296 159.618 31.3559C159.618 31.0357 159.511 30.7154 159.244 30.4485C158.977 30.1817 158.709 30.0749 158.335 30.0749H150.799C150.265 30.0749 149.784 29.8614 149.409 29.4878C149.035 29.1141 148.821 28.6337 148.821 28.1C148.821 27.7797 148.715 27.4595 148.447 27.1926C147.966 26.7122 147.165 26.7122 146.684 27.1926C146.416 27.4595 146.309 27.7263 146.309 28.1C146.309 28.7405 146.416 29.3276 146.684 29.8614C146.897 30.3952 147.218 30.8756 147.646 31.3026C148.073 31.7296 148.554 32.0498 149.089 32.2633C149.623 32.4768 150.211 32.637 150.853 32.637H158.335ZM170.521 13.7418H179.447C179.768 13.7418 180.088 13.635 180.356 13.3681C180.623 13.1012 180.73 12.8344 180.73 12.4607C180.73 12.1405 180.623 11.8202 180.356 11.5533C180.088 11.2864 179.821 11.1797 179.447 11.1797H170.521C170.201 11.1797 169.88 11.2864 169.613 11.5533C169.345 11.8202 169.239 12.0871 169.239 12.4607C169.239 12.781 169.399 13.1012 169.613 13.3681C169.88 13.635 170.201 13.7418 170.521 13.7418ZM169.987 32.637H179.982C180.302 32.637 180.623 32.5302 180.89 32.2633C181.157 31.9965 181.264 31.7296 181.264 31.3559C181.264 31.0357 181.157 30.7154 180.89 30.4485C180.623 30.1817 180.356 30.0749 179.982 30.0749H176.24V16.5707C176.24 16.2504 176.133 15.9302 175.866 15.6633C175.385 15.1829 174.583 15.1829 174.102 15.6633C173.835 15.9302 173.728 16.1971 173.728 16.5707V30.1283H169.987C169.666 30.1283 169.345 30.235 169.078 30.5019C168.811 30.7688 168.704 31.0357 168.704 31.4093C168.704 31.7296 168.811 32.0498 169.078 32.3167C169.345 32.4768 169.613 32.637 169.987 32.637ZM194.145 31.3559V16.5173C194.145 16.1971 194.038 15.8768 193.771 15.6099C193.29 15.1295 192.488 15.1295 192.007 15.6099C191.74 15.8768 191.633 16.1437 191.633 16.5173V31.3559C191.633 31.6762 191.74 31.9965 192.007 32.2633C192.221 32.5302 192.542 32.637 192.916 32.637C193.29 32.637 193.557 32.5302 193.825 32.2633C193.985 31.9965 194.145 31.6762 194.145 31.3559ZM200.933 11.2331H184.792C184.471 11.2331 184.15 11.3398 183.883 11.6067C183.616 11.8202 183.509 12.1405 183.509 12.5141C183.509 12.8877 183.616 13.208 183.883 13.4215C184.15 13.635 184.418 13.7951 184.792 13.7951H200.933C201.307 13.7951 201.628 13.6884 201.842 13.4215C202.109 13.208 202.216 12.8877 202.216 12.5141C202.216 12.1938 202.109 11.8736 201.842 11.6067C201.628 11.3398 201.307 11.2331 200.933 11.2331ZM163.573 19.9334C162.504 19.9334 161.596 20.7874 161.596 21.9083C161.596 22.9759 162.451 23.8833 163.573 23.8833C164.642 23.8833 165.551 23.0292 165.551 21.9083C165.551 20.7874 164.695 19.9334 163.573 19.9334Z" fill="white"></path>
  <path d="M207.934 14.1688C207.773 14.3289 207.56 14.4356 207.292 14.489L208.094 16.1437H207.453L206.704 14.5424H205.849V16.1437H205.315V12.5141H206.651C207.185 12.5141 207.56 12.5675 207.773 12.781C208.041 12.9411 208.147 13.208 208.147 13.5282C208.147 13.7418 208.094 13.9553 207.934 14.1688ZM207.613 13.5282C207.613 13.3147 207.506 13.1012 207.346 12.9945C207.185 12.8877 206.918 12.8344 206.544 12.8344H205.849V14.1154H206.544C206.918 14.1154 207.185 14.062 207.346 13.9553C207.506 13.9553 207.613 13.7951 207.613 13.5282ZM209.697 14.3289C209.697 16.0369 208.308 17.4781 206.544 17.4781C204.78 17.4781 203.391 16.0903 203.391 14.3289C203.391 12.5675 204.78 11.1797 206.544 11.1797C208.308 11.1797 209.697 12.6208 209.697 14.3289ZM206.597 11.5533C205.048 11.5533 203.818 12.781 203.818 14.3289C203.818 15.8768 205.048 17.1045 206.597 17.1045C208.147 17.1045 209.377 15.8768 209.377 14.3289C209.377 12.781 208.094 11.5533 206.597 11.5533Z" fill="white"></path>
  <path d="M9.75122 44.2731C18.2494 44.7001 23.4873 36.9072 23.7545 30.9824C23.9683 27.4062 22.7925 25.0576 22.7925 25.0576C22.7925 25.0576 20.6546 26.7123 17.8218 26.6056C14.3477 26.4454 13.9201 24.7374 10.446 24.5239C3.87196 24.1502 0.29096 29.221 0.0237214 33.758C-0.19007 38.0815 2.42887 43.8995 9.75122 44.2731ZM9.85811 42.6185C3.81851 42.2982 1.52026 37.6011 1.73405 33.8647C1.94784 30.2885 4.78057 25.9117 10.446 26.2319C13.4391 26.392 14.0805 28.1001 17.8218 28.3136C19.4253 28.4203 20.8149 28.0467 21.8839 27.5663C22.0442 28.4203 22.2046 29.5946 22.1511 30.929C21.8839 35.8397 17.4477 42.9921 9.85811 42.6185Z" fill="white"></path>
  <path d="M3.07031 11.0197C3.07031 19.56 11.1944 24.3104 17.0736 24.3104C20.6546 24.3104 22.9529 23.0294 22.9529 23.0294C22.9529 23.0294 21.1891 21.0011 21.1891 18.1722C21.1891 14.7027 22.8994 14.1689 22.8994 10.6995C22.846 4.08082 17.6081 0.771484 13.0651 0.771484C8.73578 0.771484 3.07031 3.65381 3.07031 11.0197ZM4.72719 11.0197C4.72719 4.93484 9.27026 2.42615 13.0651 2.42615C16.6461 2.42615 21.1891 5.04159 21.1891 10.6995C21.1891 13.6886 19.4788 14.4358 19.4788 18.1722C19.4788 19.7735 19.9064 21.1612 20.4408 22.2288C19.5857 22.4423 18.4098 22.6558 17.0736 22.6558C12.103 22.6558 4.72719 18.6526 4.72719 11.0197Z" fill="white"></path>
  <path d="M46.6287 35.947C46.6287 27.4067 38.5581 22.6562 32.6254 22.6562C29.0443 22.6562 26.7461 23.9373 26.7461 23.9373C26.7461 23.9373 28.5099 25.9656 28.5099 28.7945C28.5099 32.264 26.7995 32.7978 26.7995 36.2672C26.7995 42.8859 32.0374 46.1952 36.5805 46.1952C40.9632 46.1952 46.6287 43.3129 46.6287 35.947ZM44.9718 35.947C44.9718 42.0319 40.4287 44.5405 36.6339 44.5405C33.0529 44.5405 28.5099 41.9251 28.5099 36.2672C28.5099 33.2781 30.2202 32.5309 30.2202 28.7945C30.2202 27.1932 29.7926 25.8055 29.2581 24.7379C30.1133 24.5244 31.2892 24.3109 32.6254 24.3109C37.596 24.3109 44.9718 28.3141 44.9718 35.947Z" fill="white"></path>
  <path d="M37.4374 2.05249C28.8858 2.05249 24.1289 10.1657 24.1289 16.0371C24.1289 19.6133 25.4117 21.9085 25.4117 21.9085C25.4117 21.9085 27.4427 20.1471 30.2754 20.1471C33.7495 20.1471 34.284 21.8551 37.7581 21.8551C44.3856 21.8551 47.6994 16.6242 47.6994 12.0872C47.6994 7.71038 44.7598 2.05249 37.4374 2.05249ZM37.4374 3.70716C43.477 3.70716 45.9891 8.24414 45.9891 12.0339C45.9891 15.6101 43.3701 20.1471 37.7046 20.1471C34.7116 20.1471 33.9633 18.439 30.222 18.439C28.6185 18.439 27.2289 18.866 26.1599 19.3998C25.9461 18.5458 25.7323 17.3715 25.7323 16.0371C25.7858 11.0731 29.7944 3.70716 37.4374 3.70716Z" fill="white"></path>
  <path d="M27.9229 49.5046C27.6022 49.9316 27.0143 49.985 26.5867 49.6648C23.8609 47.6898 22.5781 44.9676 22.5781 41.2313C22.5781 39.203 23.3798 36.4808 24.0747 34.9329C24.8764 33.2249 25.304 31.7303 25.304 29.4885C25.304 28.2075 24.9833 26.6062 24.1281 24.7914L25.6246 24.1509C26.4264 25.8589 27.0143 27.8338 27.0143 29.3818C27.0143 32.2107 26.5333 33.5985 25.7315 35.52C25.0902 37.1213 24.5022 39.63 24.5022 41.2313C24.5022 44.2738 25.5712 46.5689 27.7626 48.1168C28.1367 48.4905 28.1901 49.0776 27.9229 49.5046Z" fill="white"></path>
</svg>
