<?xml version="1.0" encoding="UTF-8"?> <svg xmlns="http://www.w3.org/2000/svg" viewBox="0 0 169.31 59.25"><defs><style> .cls-1 { fill: #fff; } .cls-2 { opacity: .5; } </style></defs><g id="Capa_1" data-name="Capa 1"></g><g id="Capa_2" data-name="Capa 2"><g id="Capa_1-2" data-name="Capa 1"><g><g><path class="cls-1" d="M57.53,43.69c1.89,0,3.62,.66,4.96,1.69,.24,.2,.29,.57,.09,.77-.18,.26-.53,.28-.75,.11-1.18-.92-2.67-1.49-4.3-1.49-3.84,0-6.91,3-6.91,6.75s3.07,6.67,6.91,6.67c1.62,0,3.11-.53,4.25-1.49,.26-.18,.61-.13,.77,.13,.22,.2,.18,.59-.07,.77-1.34,1.03-3.07,1.67-4.96,1.67-4.41,0-7.98-3.46-7.98-7.74s3.57-7.81,7.98-7.83Z"></path><path class="cls-1" d="M73.66,52.74c0-1.89-1.53-3.16-3.42-3.16s-3.4,1.27-3.4,3.16v6.05s-.02,.07-.02,.09c-.02,.04-.02,.07-.04,.09-.07,.13-.18,.22-.33,.26,0,0-.02,.02-.04,.02h-.11c-.15,0-.31-.07-.42-.18-.04-.07-.07-.11-.09-.18-.02-.07-.02-.11-.02-.18v-14.3c0-.28,.24-.53,.53-.53,.31,0,.55,.24,.55,.53v5.66c.81-.96,2.04-1.58,3.4-1.58,2.48,0,4.49,1.75,4.49,4.23v5.99c0,.28-.24,.53-.55,.53-.28,0-.53-.24-.53-.53v-5.99Z"></path><path class="cls-1" d="M78.12,45.53c0-.29,.24-.53,.53-.53,.31,0,.55,.24,.55,.53v.5c0,.31-.24,.57-.55,.57-.28,0-.53-.26-.53-.57v-.5Zm0,3.51c0-.31,.24-.53,.53-.53,.31,0,.55,.22,.55,.53v9.69c0,.28-.24,.53-.55,.53-.28,0-.53-.24-.53-.53v-9.69Z"></path><path class="cls-1" d="M82.83,44.43c0-.28,.24-.53,.53-.53,.31,0,.55,.24,.55,.53v14.3c0,.28-.24,.53-.55,.53-.28,0-.53-.24-.53-.53v-14.3Z"></path><path class="cls-1" d="M87.24,53.9c0-2.98,2.32-5.39,5.22-5.39s4.96,2.19,5.17,5v.09c0,.28-.24,.48-.53,.48h-8.81c.11,2.35,1.95,4.12,4.17,4.12,1.43,0,2.74-.75,3.46-1.95,.15-.26,.48-.31,.7-.18,.24,.18,.33,.48,.18,.75-.92,1.47-2.52,2.43-4.34,2.43-2.89,0-5.22-2.41-5.22-5.35Zm1.12-.86h8.13c-.35-2.02-2.06-3.49-4.03-3.49s-3.71,1.45-4.1,3.49Z"></path></g><g><path class="cls-1" d="M49.94,36.42V8.58c0-1.46,1.13-2.59,2.59-2.59h5.57c9.11,0,16.47,7.41,16.47,16.47s-7.36,16.56-16.47,16.56h-5.57c-1.46,0-2.59-1.18-2.59-2.6Zm5.24-2.64h2.93c6.23-.05,11.23-5.05,11.23-11.32s-5-11.23-11.23-11.23h-2.93v22.55Z"></path><path class="cls-1" d="M81.17,30.8c.85-1.04,2.41-1.18,3.44-.33,2.08,1.7,5.66,3.68,9.01,3.63,2.36,0,4.48-.71,5.9-1.75,1.42-1.04,2.03-2.22,2.03-3.4,0-.61-.14-1.04-.42-1.51s-.71-.94-1.42-1.42c-1.37-.9-3.68-1.7-6.46-2.22h-.09c-2.22-.42-4.29-.99-6.09-1.84-1.79-.85-3.35-2.03-4.39-3.68-.71-1.13-1.09-2.45-1.09-3.87,0-2.83,1.6-5.28,3.77-6.89,2.22-1.6,5.1-2.5,8.16-2.5,4.53,0,7.88,2.22,10.29,3.77,1.09,.76,1.42,2.26,.66,3.35-.71,1.13-2.22,1.46-3.35,.71-2.41-1.6-4.72-3.02-7.6-3.02-2.12,0-4.01,.66-5.28,1.6-1.27,.94-1.79,1.98-1.79,2.97,0,.57,.09,.94,.33,1.32,.24,.38,.66,.8,1.27,1.23,1.23,.85,3.35,1.6,5.9,2.08h.09c2.41,.47,4.62,1.09,6.51,1.98,1.93,.94,3.63,2.17,4.72,3.92,.71,1.13,1.13,2.55,1.13,4.01,0,3.02-1.7,5.61-4.06,7.31-2.31,1.7-5.38,2.69-8.73,2.69-5.1-.05-9.39-2.59-12.08-4.72-1.04-.85-1.18-2.41-.38-3.44Z"></path><path class="cls-1" d="M140.1,22.03c.05-9.34,7.88-16.94,17.32-16.99,4.15,0,7.93,1.37,10.9,3.68,1.13,.94,1.32,2.59,.47,3.77-.94,1.18-2.69,1.37-3.77,.52-2.08-1.7-4.67-2.6-7.6-2.6-3.26,0-6.28,1.32-8.49,3.4-2.12,2.17-3.44,5-3.44,8.21s1.32,6.13,3.44,8.21c2.22,2.08,5.24,3.4,8.49,3.4,2.93,0,5.47-.9,7.6-2.59,1.09-.8,2.83-.61,3.77,.52,.85,1.18,.66,2.88-.47,3.77-2.97,2.31-6.75,3.68-10.9,3.68-9.44,0-17.27-7.6-17.32-16.99Z"></path><path class="cls-1" d="M136.99,35.48l-10.43-27.79c-.42-1.04-1.42-1.7-2.5-1.65-1.04-.05-2.08,.61-2.5,1.65l-10.43,27.79c-.47,1.37,.19,2.88,1.56,3.4,.28,.09,.57,.14,.9,.14,1.04,0,2.03-.61,2.45-1.65l2.05-5.44,2.16-5.89h0l.25-.67h0l3.57-9.47,3.57,9.47,1.14,3.01,1.37,3.71,1.99,5.28c.38,1.04,1.37,1.65,2.41,1.65,.33,0,.66-.05,.9-.14,1.37-.52,2.03-2.03,1.56-3.4Z"></path></g><g><circle class="cls-1" cx="15.17" cy="22.03" r="11.89"></circle><g class="cls-2"><path class="cls-1" d="M15.95,.01C10.07-.19,4.69,1.92,.63,5.49c-.79,.69-.81,1.92-.07,2.66l13.85,13.85L.54,35.88c-.75,.75-.7,1.98,.1,2.69,3.88,3.41,8.97,5.49,14.54,5.49,12.56,0,22.66-10.51,22-23.21C36.58,9.51,27.29,.4,15.95,.01Z"></path></g></g></g></g></g></svg> 