<?xml version="1.0" encoding="utf-8"?>
<!-- Generator: Adobe Illustrator 25.2.3, SVG Export Plug-In . SVG Version: 6.00 Build 0)  -->
<svg version="1.1" xmlns="http://www.w3.org/2000/svg" xmlns:xlink="http://www.w3.org/1999/xlink" x="0px" y="0px"
	 viewBox="0 0 553 169" style="enable-background:new 0 0 553 169;" xml:space="preserve">
<style type="text/css">
	.st0{display:none;}
	.st1{display:inline;}
	.st2{fill:#FFFFFF;}
</style>
<g id="Layer_3" class="st0">
	<rect class="st1" width="552.5" height="169"/>
</g>
<g id="Layer_4" class="st0">
	<g class="st1">
		<g>
			<g>
				<path class="st2" d="M125.9,0.5c22.1,0,33.5,13.2,33.5,36.4v4.6h-21.5v-6c0-10.3-4.1-14.3-11.4-14.3c-7.2,0-11.4,3.9-11.4,14.3
					c0,10.6,4.6,18.4,19.5,31.5c19,16.8,25,28.8,25,45.3c0,23.2-11.6,36.4-33.9,36.4c-22.4,0-33.9-13.2-33.9-36.4v-8.9h21.5v10.3
					c0,10.3,4.6,14.1,11.8,14.1c7.2,0,11.8-3.7,11.8-14.1c0-10.6-4.6-18.4-19.5-31.5c-19-16.8-25-28.8-25-45.3
					C92.3,13.7,103.7,0.5,125.9,0.5z"/>
				<path class="st2" d="M246.3,147h-23l-3.9-26.3h-27.9l-3.9,26.3h-20.9L189.9,2.1h33.3L246.3,147z M194.4,101.1h21.9l-10.8-73.3
					h-0.4L194.4,101.1z"/>
				<g>
					<path class="st2" d="M46,0.5c-22.4,0-34.6,13.2-34.6,36.4V83c1.6-0.1,3.1-0.3,4.7-0.3c8.1,0,15.7,1.8,22.5,5
						c0.8-3,3.6-5.1,6.8-5.1c3.7,0,6.7,2.8,7.1,6.3c4.8,1.6,9.7,4,13.8,6.7c1.1,0.8,2.3,2,2.3,3.5v0.2l7.2,3.1
						c1.3,0.6,2.1,2,1.7,3.5c-1.3,5.4-6.4,10.3-12,10.3c-17.6,1.5-32.9,11.9-41.1,26.6c5.5,3.8,12.7,5.8,21.4,5.8
						c22.3,0,34.6-13.2,34.6-36.4V36.9C80.5,13.7,68.3,0.5,46,0.5z M57.5,88.4c-0.3-0.1-0.6-0.2-0.8-0.3c-0.8-5.3-5.2-9-10.2-9.5
						c-4.5-0.4-8,1.6-10.2,5.2c-0.7-0.4-1.4-0.7-2.1-1c0-13.7,0-44.4,0-44.4c0-11.6,4.5-16,11.7-16s11.7,4.4,11.7,16v50
						C57.6,88.4,57.5,88.4,57.5,88.4z"/>
					<path class="st2" d="M57.6,101c0.9-0.2,1.6-0.9,1.8-1.8c0.5-1.9-1.2-3.6-3.1-3.1c-0.9,0.2-1.6,0.9-1.8,1.8
						C54.1,99.8,55.7,101.5,57.6,101z"/>
				</g>
			</g>
		</g>
		<g>
			<path class="st2" d="M250.6,143c0-1.1,0.3-2.1,0.8-3s1.2-1.7,2.1-2.2c0.9-0.5,1.8-0.8,2.9-0.8s2,0.3,2.9,0.8s1.6,1.3,2.1,2.2
				s0.8,1.9,0.8,3s-0.2,2-0.7,3c-0.5,0.9-1.2,1.7-2.1,2.2c-0.9,0.6-1.9,0.8-2.9,0.8c-1.1,0-2-0.3-2.9-0.8s-1.6-1.3-2.1-2.2
				C250.8,145,250.6,144,250.6,143z M251.5,143c0,0.9,0.2,1.8,0.6,2.6c0.4,0.8,1,1.4,1.8,1.8s1.5,0.7,2.4,0.7c0.9,0,1.7-0.2,2.4-0.7
				s1.3-1.1,1.7-1.8c0.4-0.8,0.6-1.6,0.6-2.6c0-0.9-0.2-1.8-0.6-2.5c-0.4-0.8-1-1.4-1.7-1.8c-0.7-0.4-1.5-0.7-2.4-0.7
				s-1.7,0.2-2.4,0.7c-0.7,0.4-1.3,1.1-1.8,1.8C251.7,141.2,251.5,142,251.5,143z M255.1,143.6v2.7H254v-6.8h2.2
				c0.8,0,1.5,0.2,1.9,0.5c0.5,0.4,0.7,0.9,0.7,1.5c0,0.7-0.3,1.2-1,1.5c0.7,0.3,1,0.8,1,1.6v0.5c0,0.5,0,0.8,0.1,1v0.1h-1.2
				c-0.1-0.2-0.1-0.5-0.1-1s0-0.8,0-0.9c-0.1-0.5-0.4-0.8-1.1-0.8L255.1,143.6L255.1,143.6z M255.1,142.5h1.3c0.4,0,0.7-0.1,0.9-0.3
				c0.2-0.2,0.4-0.4,0.4-0.7c0-0.4-0.1-0.7-0.3-0.8c-0.2-0.2-0.6-0.2-1.1-0.2h-1.1L255.1,142.5L255.1,142.5z"/>
		</g>
	</g>
	<g class="st1">
		<path class="st2" d="M267.2,147.2c0,0-0.1-0.5-0.3-1.5c0-0.1-0.1-0.3-0.1-0.7c0-0.5,0.1-1.2,0.3-2.1c0.1-0.7,0.2-1.1,0.2-1.5
			c0.1-0.3,0.1-0.7,0.2-0.8c1.5-6.8,2.8-12.7,4.3-17.9l5.1-22.8c0-0.1,0.1-0.2,0.2-0.5c0.1-0.2,0.3-0.3,0.5-0.3h0.3
			c0,0,0.1,0.1,0.2,0.1c0.6,0,1.2-0.1,1.9-0.2c0.7-0.1,1.4-0.2,1.9-0.2c1,0,2,0.1,2.9,0.2c0.5,0,0.9,0,1.5,0.1
			c0.6,0,1.1,0.1,1.7,0.1c0.2,0,0.5,0,0.7-0.1h1.4h1.7l1.7-0.1c0.3,0,0.8-0.1,1.2-0.1c0.3,0,0.6,0,0.6-0.1h1.1h2.5h3
			c2.7,0,4.5,0,5.4,0.1c0.1,0,0.3,0,0.6,0s0.5,0.1,0.5,0.2c0.3,0,0.7,0,1-0.1c0.3,0,0.7-0.1,0.9-0.1c0.7-0.1,1.4-0.2,1.9-0.2
			c0.3,0,0.6,0.1,0.9,0.2s0.6,0.2,0.9,0.2l0.3-0.1h0.3c0.1,0.1,0.3,0.2,0.5,0.5c0.1,0.2,0.2,0.3,0.2,0.5l5.1,22.8
			c1.6,5.6,2.9,11.6,4.2,17.9c0,0.3,0.1,0.6,0.3,0.9c0,0.3,0.1,0.8,0.2,1.4s0.1,1,0.1,1.5c0,0.2,0.1,0.5,0.1,0.8
			c0,0.7-0.1,1.2-0.5,1.7c-0.2,0.3-0.5,0.5-0.9,0.5H323c-0.7,0-1.2,0-1.7-0.1h-1.9h-1.8h-1.5c-0.3,0-0.6,0-0.6-0.1H311V147
			c-0.2-0.1-0.5-0.1-0.7-0.1l-0.1,0.1c0,0.1,0,0.1-0.1,0.1h-0.2h-0.6c-0.2-0.1-0.7-0.1-1.5-0.1c-1.5-0.1-2.6-0.1-3.4-0.1
			c-0.3-0.5-0.6-1.4-0.9-2.6c-0.3-1.4-0.7-2.7-1-4.4c-0.1-0.8-0.2-1.4-0.3-1.6c-1,0.2-2.4,0.3-3.9,0.3H296h-2.1l-0.5,2.4
			c-0.7,3.2-1.1,5.2-1.5,6c-0.2,0-0.5,0-0.7,0.1c-0.1,0-0.2,0.1-0.3,0.1h-0.3c-0.3,0-0.5,0-0.7-0.1c-0.1-0.1-0.2-0.1-0.3-0.1
			l-3.3,0.1h-1.1h-1.1c-0.2,0.1-0.5,0.1-0.7,0.1H283h-6.6h-0.7c-0.6,0-1.6,0.1-3.3,0.1h-1.9c-0.3,0-0.9,0.1-1.7,0.1h-0.9
			C267.4,147.2,267.2,147.2,267.2,147.2z M300.9,125.9c-0.1-0.7-0.3-1.9-0.7-3.8c-0.1-0.5-0.3-1.8-0.7-3.9l-0.6-3.5
			c-0.1-1-0.3-1.8-0.5-2.5l-0.1-0.9c-0.1-0.2-0.2-0.5-0.2-0.7l-0.1-0.5c0,0.1-0.1,0.2-0.1,0.5c0,0.2,0,0.3-0.1,0.3v0.3l-0.1,0.9
			c0,0.3-0.1,0.7-0.2,1.1c-0.1,0.5-0.1,0.9-0.2,1.4l-0.3,2c-0.6,3-0.9,4.8-0.9,5.3c0,0.6-0.2,1.4-0.3,2.4c-0.1,0.3-0.2,0.9-0.3,1.5
			l-0.6,3.4h3.7l0.5-0.1h0.1c0.6,0,1,0,1.4,0.1c0.2,0,0.3,0,0.6,0.1c0.1,0.1,0.3,0.1,0.5,0.2C301.1,127.1,300.9,125.9,300.9,125.9z"
			/>
		<path class="st2" d="M338.3,147.2h-1.5h-1.1H335l-3.3-0.8l-0.2-0.6c0,0-0.1-0.2-0.1-0.8c-0.1-1.5-0.1-3.2-0.1-5
			c0-1.4,0-2.5-0.1-3.3c0-1.4,0-2.4-0.1-3v-2.5c-0.2-2.3-0.3-4.6-0.5-7.3c0-2.7-0.1-5.2-0.1-7.8l0.1-7.4c0-0.8,0.1-2,0.1-3.7
			s0-2.9-0.1-3.7c-0.1-1.1,0.1-1.9,0.9-2.5c0.5-0.2,1.4-0.3,2.5-0.3c1.8,0,4.1,0,6.9-0.1l1.6-0.1c2.9-0.2,4.7-0.3,5.4-0.3
			c0.7,0,1.1,0,1.5,0.1c0.7,0,1.1,0.1,1.4,0.3c0.2,0.1,0.5,0.3,0.7,0.7s0.3,0.6,0.5,0.8c0.6,0.8,1.1,1.6,1.7,2.5
			c0.9,1.4,1.6,2.4,2.1,3l4.7,7.3l2.4,3.5c0-1.2,0-2.3,0.1-2.9v-6.8l0.2-5.2c0-0.3,0.1-0.7,0.1-0.8c0-0.1,0.1-0.2,0.2-0.3
			c0.1-0.1,0.1-0.1,0.2-0.2c0.6-0.5,1.1-0.8,1.7-1.1c0.5-0.1,0.9-0.1,1.1-0.1h4.2h0.9c0.3,0,1,0.1,2,0.1s1.9,0,2.5,0.1h2.5h2h0.9
			c1.2,0,2.1,0.2,2.5,0.6c0.6,0.3,0.8,1.2,0.8,2.5l-0.1,0.7l-0.1,1.1c0,0.3-0.1,0.7-0.1,1.1v0.9v0.6l0.1,0.7v2.4
			c0,0.8-0.1,2.3-0.1,4.2v5.4c0,1.2-0.1,3-0.1,5.3v4.2v2.5v11.4l-0.3,2.7c-0.2,1.1-0.6,1.8-1.1,2l-1.2,0.1l-1.2-0.1H377h-3.5H369
			h-1.1c-1,0.1-1.9,0-2.8-0.3c-0.5-0.2-0.9-0.5-1.5-0.9l-7.4-10.4c0,0-0.6-0.9-1.6-2.7c-0.3-0.6-0.8-1.1-1.1-1.5
			c-0.1-0.2-0.2-0.3-0.3-0.5s-0.2-0.2-0.2-0.2c-0.5,0-0.7,0.2-0.7,0.6v1.6c0,0.5-0.1,1.2-0.1,2.4v2.8v2.7c-0.1,0.6-0.1,1.4-0.1,2.1
			v1.5v1.1l0.1,0.3c0,0.3-0.2,0.7-0.6,0.7c-0.2,0.2-0.7,0.2-1.1,0.1c-1.7,0.1-2.9,0.2-3.9,0.3c-0.6,0-1.6,0.1-3,0.2
			c-1.5,0.1-2.8,0.1-4.1,0.1C339.1,147.3,338.6,147.3,338.3,147.2z"/>
		<path class="st2" d="M405.9,147.1l-11-0.1c-0.8,0-1.4-0.6-1.6-1.6c-0.2-0.7-0.3-1.7-0.3-2.9c0-4.2,0-7.9-0.1-11.3
			c-0.1-4.7-0.2-9.7-0.2-15v-15.9c0-0.5,0.2-0.9,0.6-1.2c0.5-0.5,0.8-0.6,1.2-0.6l8.4,0.1c1.6,0,3.6,0.1,6,0.1c3.6,0,6.4,0,8.4-0.1
			l2.7-0.1c3-0.1,5.4-0.1,7.1-0.1c3,0,5.9,0.6,8.7,1.7c3.3,1.2,5.9,3.4,7.9,6.4c2.4,3.7,3.5,8.2,3.5,13.5c0,5.1-0.6,9.2-1.7,12.6
			c-1.1,3.4-2.9,6.2-5.4,8.3s-5.6,3.7-9.7,4.6c-3.9,1-9,1.5-15,1.5L405.9,147.1z M416.8,137.5c0.3,0,0.9,0,1.6-0.1
			c0.2,0,0.5-0.1,0.6-0.2c0.1-0.1,0.2-0.1,0.3-0.2c0.6-0.7,1.1-2.1,1.7-4.3c0.3-1.4,0.8-3.7,1.2-7c0.2-2.8,0.3-5.2,0.3-7.2v-1.4
			c0-1.2-0.1-3.2-0.3-5.6c-0.3-2.5-0.8-4.3-1.5-5.3c-0.6-0.7-1-1-1.5-1s-0.8,0-1.1,0.1c-0.3,0.1-0.6,0.2-0.7,0.2s-0.3,0.2-0.7,0.3
			l-0.1,8.7c0,0.8,0,1.9-0.1,3.5l-0.1,1.7c-0.1,2.4-0.1,4.2-0.1,5.2l-0.3,12.4C416.2,137.5,416.5,137.5,416.8,137.5z"/>
		<path class="st2" d="M457.5,147c-0.5-0.1-1-0.1-1.7-0.2l-1.5-0.3c-0.2,0-0.5-0.1-0.6-0.2c-0.1-0.1-0.1-0.1-0.1-0.2
			c0-1.2-0.1-2.9-0.2-5c0-0.7,0-1.4-0.1-1.9c0-0.6-0.1-1-0.1-1.5l-0.1-3.2c0-0.8,0-1.8-0.1-3.2l-0.1-2.3c0-1.8,0-3.3-0.1-4.3
			c0-1-0.1-3.2-0.1-6.4c0-3,0-6.2,0.1-9.5c0-3.3,0.2-6.3,0.5-9.2c0-0.6,0.6-1,1.7-1.4c0.7-0.1,1.9-0.1,3.6-0.1
			c3.9,0,6.8-0.1,8.6-0.2c5.7-0.1,10-0.1,12.8-0.1h3.2c3.9,0.1,7,0.2,9.1,0.5c0.8,0,1.4,0.9,1.7,2.7c0.1,0.3,0.3,1.2,0.6,2.6
			c0.1,0.7,0.3,1.6,0.6,2.7c0,0.3,0.1,0.6,0,0.8c0,0.2,0,0.5,0,0.5c0,0.5-0.3,0.7-0.8,0.7c-0.2,0-0.5-0.1-0.9-0.1
			c-2,0-4.5,0.2-7.4,0.5l-3.8,0.3c-1.6,0.2-2.8,0.3-3.7,0.3c-0.1,0-0.3,0.3-0.6,0.9c-0.2,0.7-0.5,2-0.7,4.4l-0.1,1.8
			c0,0.7,0.1,1,0.2,1.2s0.5,0.2,0.9,0.2h6.4c1.9,0,4.1,0.1,6.4,0.3h0.9c0.7,0.1,1,0.3,1.1,0.7c0.2,0.3,0.3,0.6,0.3,0.9l0.3,6.4v0.2
			c0,0.8-0.9,1.4-2.6,1.5c-1,0.2-2.9,0.3-5.7,0.3c-2.5,0-4.1,0-4.7-0.1c-1.4,0-2.3,0-2.5,0.1c-0.6,0.1-0.9,0.5-1,0.8
			c-0.1,0.5-0.2,1.1-0.2,2c0,0.7,0,1.5-0.1,2.7c0,0.6-0.1,1.5-0.1,2.7c3.2,0,5.4,0,7-0.1c1.7-0.1,3.9-0.2,7-0.2
			c0.2,0,0.3,0.2,0.6,0.6c0.2,0.5,0.7,1.6,1.1,3.3c0.3,1,0.6,2.1,0.9,3.6c0.1,0.3,0.1,0.7,0.1,1.1c0,1-0.5,1.5-1.5,1.5
			c-1.2,0-2.9,0-5.1,0.1c-1.1,0.1-2.8,0.1-5.2,0.1c-5.1,0-8.9,0-11.4,0.1h-11.5C458.3,147.1,457.9,147.1,457.5,147z"/>
		<path class="st2" d="M509.5,147.6c-3.4-0.8-6.2-1.9-8.4-3.4c-0.6-1.7-1-3.5-1.4-5.2c-0.3-1.7-0.7-4.2-1.1-7.4v-0.2
			c0.1-0.6,0.5-1,0.9-1.4c1.8,1.1,3.6,1.9,5.3,2.5c1.7,0.6,3.5,0.8,5.5,0.8h1.7l1.1,0.1c1.1,0,2.3-0.1,3.4-0.5
			c0.7-0.2,1-0.7,1.4-1.4l-3.8-1.9c-2.9-1.4-5.6-2.9-8-4.5c-2.5-1.8-4.2-4.1-5.3-6.8c-0.6-1.5-0.8-3.2-0.8-5c0-4.4,1.4-7.9,3.9-10.5
			c2.4-2.4,5.4-4.1,9.5-5.1c3.4-0.8,7.2-1.2,11.3-1.2c2.4,0,5.7,0.2,10,0.8c0.5,0.1,1,0.2,1.8,0.3l2.1,0.5c1.7,0.3,2.8,0.5,3.6,0.5
			c0,0,0.1,0.1,0.2,0.2c0.1,0.1,0.2,0.2,0.3,0.3c0.2,0.3,0.3,0.5,0.6,0.5h0.1h0.1l0.1,1.5c0,0.7,0.1,1.5,0.2,2.4
			c0.1,1.2,0.2,2.5,0.2,3.9c0,1.2-0.1,2-0.2,2.6c-0.2,1-0.7,1.7-1.4,2.1l-6.8-0.9H535h-1c-1.7,0-3.5,0.2-5.6,0.6l-2.4,0.5
			c-0.6,0.1-0.9,0.2-0.9,0.3c0,1.1,0.8,2.3,2.3,3.3c0.7,0.3,1.5,0.7,2.1,1c0.7,0.3,1.1,0.5,1.4,0.6c3.6,1,6.6,2.8,9.2,5.3
			c1.2,1.1,2.1,2.4,2.8,3.7s1,2.6,1,3.7c0,0.7-0.1,1.5-0.3,2.4c-0.3,3.6-1.7,6.8-4.2,9.5c-2.4,2.4-5.3,4.1-8.9,5.2
			c-3,1.1-6.8,1.7-11.1,1.7C516.3,148.9,512.8,148.4,509.5,147.6z"/>
	</g>
</g>
<g id="Capa_1">
	<g id="osa_control_logo" transform="translate(-11.4 -12.5)">
		<g id="Group_9" transform="translate(11.4 12.5)">
			<g id="Group_7" transform="translate(0 0)">
				<g id="Group_6">
					<path id="Path_6" class="st2" d="M118.61-0.52c22.99,0,34.85,15.07,34.85,41.55v5.25h-22.36v-6.85
						c0-11.76-4.27-16.32-11.86-16.32c-7.49,0-11.86,4.42-11.86,16.32c0,12.1,4.78,21,20.29,35.95c19.77,19.17,26,32.85,26,51.71
						c0,26.48-12.09,41.55-35.26,41.55c-23.3,0-35.26-15.07-35.26-41.55v-10.16h22.36v11.76c0,11.76,4.78,16.09,12.28,16.09
						s12.28-4.22,12.28-16.09c0-12.1-4.78-21-20.29-35.95c-19.77-19.17-26-32.85-26-51.71C83.65,14.55,95.52-0.52,118.61-0.52z"/>
					<path id="Path_7" class="st2" d="M243.86,166.7h-23.92l-4.03-30.02h-29.02l-4.03,30.02h-21.8L185.18,1.31h34.64L243.86,166.7z
						 M189.84,114.3h22.78l-11.21-83.66H201L189.84,114.3z"/>
					<g id="Group_5">
						<path id="Path_8" class="st2" d="M35.49-0.52C12.19-0.52-0.5,14.55-0.5,41.03v52.59c1.66-0.11,3.22-0.34,4.89-0.34
							c8.09-0.03,16.08,1.92,23.41,5.69c0.89-3.47,3.79-5.85,7.07-5.82c3.77,0,6.94,3.09,7.39,7.19c5.06,1.87,9.88,4.44,14.35,7.64
							c1.32,0.85,2.21,2.33,2.4,3.99v0.23l7.49,3.54c1.41,0.67,2.16,2.37,1.77,3.99c-1.36,6.5-6.42,11.28-12.48,11.8
							c-17.95,1.74-33.96,13.11-42.75,30.36c6.63,4.65,14.4,6.96,22.26,6.62c23.2,0,35.99-15.07,35.99-41.55V41.04
							C71.38,14.55,58.69-0.52,35.49-0.52z M47.46,99.81c-0.28-0.09-0.56-0.21-0.83-0.34c-0.86-5.85-5.23-10.32-10.61-10.84
							c-4.3-0.55-8.49,1.79-10.61,5.93c-0.71-0.43-1.44-0.81-2.18-1.14V42.74c0-13.27,4.68-18.26,12.17-18.26
							s12.17,5.02,12.17,18.26v57.07L47.46,99.81z"/>
						<path id="Path_9" class="st2" d="M47.56,114.19c0.93-0.23,1.66-1.03,1.87-2.05c0.38-1.53-0.44-3.12-1.84-3.54
							c-0.45-0.14-0.93-0.14-1.38,0c-0.93,0.23-1.66,1.03-1.87,2.05c-0.36,1.56,0.5,3.14,1.92,3.54
							C46.68,114.31,47.13,114.31,47.56,114.19z"/>
					</g>
				</g>
			</g>
			<g id="Group_8" transform="translate(43.214 24.66)">
				<path id="Path_10" class="st2" d="M205.12,137.47c0-1.2,0.29-2.38,0.83-3.42c0.5-1.05,1.25-1.93,2.18-2.53
					c1.86-1.22,4.18-1.22,6.03,0c0.93,0.6,1.68,1.48,2.18,2.53c0.54,1.04,0.83,2.22,0.83,3.42c0.02,1.19-0.23,2.37-0.73,3.42
					c-0.5,1.05-1.25,1.93-2.18,2.53c-0.9,0.63-1.95,0.95-3.02,0.92c-1.06-0.01-2.1-0.32-3.02-0.92c-0.93-0.6-1.68-1.48-2.18-2.53
					C205.42,139.89,205.09,138.69,205.12,137.47z M206.05,137.47c0,1.03,0.21,2.05,0.62,2.97c0.4,0.89,1.06,1.62,1.87,2.05
					c0.76,0.49,1.62,0.76,2.5,0.8c0.89,0.04,1.77-0.24,2.5-0.8c0.72-0.54,1.32-1.24,1.77-2.05c0.42-0.92,0.64-1.94,0.62-2.97
					c0.02-0.99-0.2-1.98-0.62-2.86c-0.39-0.86-1.01-1.58-1.77-2.05c-0.75-0.5-1.62-0.78-2.5-0.8c-0.89-0.04-1.77,0.24-2.5,0.8
					c-0.75,0.53-1.38,1.23-1.87,2.05C206.24,135.49,206.02,136.47,206.05,137.47z M209.8,138.15v3.08h-1.15v-7.76h2.3
					c0.7-0.03,1.38,0.17,1.98,0.57c0.48,0.41,0.75,1.05,0.73,1.71c0.04,0.76-0.38,1.46-1.04,1.71c0.69,0.28,1.11,1.03,1.04,1.83
					v0.57c-0.04,0.38,0,0.77,0.1,1.14v0.11h-1.25c-0.1-0.37-0.14-0.76-0.1-1.14v-1.03c-0.1-0.57-0.41-0.92-1.15-0.92h-1.46
					L209.8,138.15z M209.8,136.89h1.35c0.34,0.03,0.68-0.09,0.94-0.34c0.23-0.19,0.38-0.48,0.41-0.8c0-0.45-0.1-0.8-0.31-0.92
					c-0.21-0.23-0.62-0.23-1.15-0.23h-1.15v2.28L209.8,136.89z"/>
			</g>
		</g>
		<g id="Group_10" transform="translate(58.173 25.616)">
			<path id="Path_11" class="st2" d="M256.28,90.23v7.53h-8.01v-7.99c0-7.53-2.71-12.1-8.95-12.1c-6.14,0-8.95,4.57-8.95,12.1v44.17
				c0,7.53,2.81,12.1,8.95,12.1c6.24,0,8.95-4.57,8.95-12.1V123.1h8.01v10.39c0,12.67-5.41,21-17.16,21
				c-11.65,0-17.06-8.33-17.06-21V90.23c0-12.67,5.41-21,17.06-21C250.84,69.23,256.28,77.57,256.28,90.23z"/>
			<path id="Path_12" class="st2" d="M263.35,90.23c0-12.78,5.72-21,17.37-21c11.75,0,17.48,8.21,17.48,21v43.26
				c0,12.67-5.72,21-17.48,21c-11.65,0-17.37-8.33-17.37-21V90.23z M271.77,133.95c0,7.64,2.91,12.1,9.05,12.1
				c6.24,0,9.05-4.42,9.05-12.1V89.78c0-7.53-2.81-12.1-9.05-12.1c-6.14,0-9.05,4.57-9.05,12.1V133.95z"/>
			<path id="Path_13" class="st2" d="M313.8,153.58h-7.59V70.03h10.82l17.58,60.38V70.03h7.49v83.55h-8.82l-19.45-67.6L313.8,153.58
				z"/>
			<path id="Path_14" class="st2" d="M361.96,153.58V78.6h-14.04v-8.45h36.51v8.45h-14.06v74.99H361.96z"/>
			<path id="Path_15" class="st2" d="M407.32,70.03c11.97,0,16.96,6.73,16.96,19.06v6.84c0,9.24-2.91,14.95-9.47,17.23
				c6.97,2.28,9.57,8.45,9.57,17.46v13.01c-0.26,3.44,0.28,6.89,1.56,10.05h-8.64c-1.19-3.22-1.69-6.69-1.46-10.16v-13.12
				c0-9.48-4.03-12.44-11.13-12.44h-6.03v35.61h-8.42V70.03H407.32z M405.14,109.41c6.76,0,10.82-2.39,10.82-11.42v-7.99
				c0-7.53-2.5-11.42-8.84-11.42h-8.22v30.96h6.24V109.41z"/>
			<path id="Path_16" class="st2" d="M432.49,90.23c0-12.78,5.72-21,17.37-21c11.75,0,17.48,8.21,17.48,21v43.26
				c0,12.67-5.72,21-17.48,21c-11.65,0-17.37-8.33-17.37-21V90.23z M440.91,133.95c0,7.64,2.91,12.1,9.05,12.1
				c6.24,0,9.05-4.42,9.05-12.1V89.78c0-7.53-2.81-12.1-9.05-12.1c-6.14,0-9.05,4.57-9.05,12.1V133.95z"/>
			<path id="Path_17" class="st2" d="M475.46,153.58V70.03h8.53v75.1h21.74v8.45L475.46,153.58z"/>
		</g>
	</g>
</g>
<g id="Layer_2" class="st0">
</g>
</svg>
